<svg width="242" height="49" viewBox="0 0 242 49" fill="none" xmlns="http://www.w3.org/2000/svg">
<g clip-path="url(#clip0_1_12)">
<path d="M52.35 23C52.35 23 52.35 9.5 62.15 9.5C65.75 9.5 65.75 9.5 65.75 9.5C65.75 9.5 65.75 23 55.85 23C52.35 23 52.35 23 52.35 23Z" fill="#7B61FF"/>
<path d="M62.25 36.5C52.35 36.5 52.35 23 52.35 23C52.35 23 52.35 23 55.95 23C65.75 23 65.75 36.5 65.75 36.5C65.75 36.5 65.8 36.5 62.25 36.5Z" fill="#7B61FF"/>
<path d="M38.9 36.5C38.9 36.5 38.9 23 48.7 23C52.3 23 52.3 23 52.3 23C52.3 23 52.3 36.5 42.4 36.5C38.9 36.5 38.9 36.5 38.9 36.5Z" fill="#36C5F0"/>
<path d="M42.45 9.5C52.35 9.5 52.35 23 52.35 23C52.35 23 52.35 23 48.75 23C38.95 23 38.95 9.5 38.95 9.5C38.95 9.5 38.9 9.5 42.45 9.5Z" fill="#36C5F0"/>
<path d="M26.75 21.95C26.75 32.15 18.05 37 10.1 37C8.85 37 8.15 36.9 7.55 36.8V48C7.55 48.2 7.45 48.4 7.1 48.45L1.05 49C0.7 49.05 0.65 48.9 0.65 48.65V14.9C0.65 14.25 0.55 12.4 0.5 11.6C0.5 11.5 0.5 11.3 0.7 11.25C3.3 10.4 8.05 8.8 12.95 8.8C22.4 8.8 26.75 14.9 26.75 21.95ZM7.55 14.95V31.5C8.2 31.65 9.4 31.85 10.35 31.85C14.95 31.85 19.65 29.15 19.65 22.35C19.65 17 16.4 14.3 12.15 14.3C10.2 14.3 8.9 14.55 7.55 14.95Z" fill="white"/>
<path d="M28.7 3.55C28.7 1.45 30.25 0 32.55 0C34.85 0 36.25 1.45 36.25 3.55C36.25 5.6 34.75 7.05 32.45 7.05C30.2 7.05 28.7 5.65 28.7 3.55ZM29.05 9.8C29.05 9.45 29.15 9.35 29.5 9.35H35.45C35.8 9.35 35.9 9.4 35.9 9.8V36C35.9 36.35 35.8 36.5 35.45 36.5H29.55C29.2 36.5 29.05 36.4 29.05 36V9.8Z" fill="white"/>
<path d="M72.95 24.9C72.85 29.6 75.75 31.5 81.55 31.5C83.75 31.5 86.35 31.15 88.8 30.05C88.95 30 89.15 30.05 89.15 30.35V34.85C89.15 35.25 89.1 35.35 88.8 35.5C86.55 36.55 83.9 37.05 80.1 37.05C69.65 37.05 67.4 30.05 67.4 23.05C67.4 15.2 70.7 8.8 79.4 8.8C87.85 8.8 90.25 16.6 90.25 21.25C90.25 23.75 89.95 24.3 89.75 24.5C89 24.85 86.7 24.9 84.85 24.9H72.95ZM82.2 20.55C84.4 20.55 84.7 20.35 84.75 20.1C84.75 20.05 84.75 19.8 84.75 19.65C84.7 18.55 83.6 13.7 79.05 13.7C75.2 13.7 73.3 17.8 72.9 20.55H82.2Z" fill="white"/>
<path d="M93 0.45C93 0.1 93.15 0 93.5 0H99.35C99.7 0 99.85 0.15 99.85 0.45V29.65C99.85 31.5 100.6 31.9 101.65 31.9C102 31.9 102.5 31.85 103 31.75C103.15 31.75 103.2 31.85 103.2 32.1V35.95C103.2 36.35 103.2 36.45 102.85 36.55C102.25 36.85 100.9 37.1 99.2 37.1C95.5 37.1 92.95 35.6 92.95 30.1L93 0.45Z" fill="white"/>
<path d="M196.55 30.15C196.55 33.2 196.7 34.75 196.85 35.9C196.9 36.25 196.8 36.35 196.45 36.35H191.2C190.8 36.35 190.7 36.25 190.6 36C190.45 35.45 190.4 34.55 190.3 33.95C187.6 36.15 184.9 36.9 181.8 36.9C176.9 36.9 172.35 34.45 172.35 26.45V9.6C172.35 9.25 172.5 9.2 172.8 9.2H178.85C179.2 9.2 179.25 9.3 179.25 9.6V25.35C179.25 29.05 180.55 31.4 184.1 31.4C186.2 31.4 188.2 30.55 189.7 29.05V9.65C189.7 9.3 189.8 9.2 190.15 9.2H196.1C196.5 9.2 196.55 9.3 196.55 9.6V30.15Z" fill="white"/>
<path d="M134.1 15.85C134.1 13.9 134 10.9 133.9 9.8C133.85 9.5 133.95 9.35 134.3 9.35H139.5C139.9 9.35 140.05 9.45 140.15 9.75C140.3 10.3 140.45 11.25 140.55 12.05C142.95 10 146.15 8.8 149.2 8.8C153.7 8.8 158.65 11.15 158.65 20.35V36C158.65 36.35 158.5 36.5 158.15 36.5H152.3C151.95 36.5 151.8 36.35 151.8 36V20.3C151.8 16.55 150.3 14.4 146.85 14.4C144.65 14.4 142.55 15.5 141.05 16.9V36.05C141.05 36.4 140.9 36.5 140.6 36.5H134.65C134.35 36.5 134.2 36.35 134.2 36V15.85H134.1Z" fill="white"/>
<path d="M161.85 3.55C161.85 1.45 163.4 0 165.7 0C168 0 169.4 1.45 169.4 3.55C169.4 5.6 167.9 7.05 165.6 7.05C163.35 7.05 161.85 5.65 161.85 3.55ZM162.15 9.8C162.15 9.45 162.25 9.35 162.6 9.35H168.55C168.9 9.35 169 9.4 169 9.8V36C169 36.35 168.9 36.5 168.55 36.5H162.65C162.3 36.5 162.15 36.4 162.15 36V9.8Z" fill="white"/>
<path d="M131.65 22.25C131.65 31 125.9 36.5 117.65 36.5C107.65 36.5 103.6 29.4 103.6 22.45C103.6 14.2 109.25 8.25 117.85 8.25C126.75 8.2 131.65 14.55 131.65 22.25ZM110.55 22.25C110.55 27.9 113.15 31.45 117.8 31.45C121.35 31.45 124.65 28.85 124.65 22.4C124.65 17.15 122.45 13.25 117.45 13.25C113.45 13.25 110.55 16.7 110.55 22.25Z" fill="white"/>
<path d="M241.2 19.8V36.05C241.2 36.4 241 36.5 240.7 36.5H234.85C234.5 36.5 234.35 36.35 234.35 36V20.05C234.35 16.8 233.1 14.4 229.6 14.4C227.5 14.4 225.45 15.35 223.55 16.95C223.7 17.6 223.85 18.7 223.85 19.8V36C223.85 36.35 223.75 36.5 223.4 36.5H217.55C217.15 36.5 217 36.4 217 36V20.05C217 16.3 215.3 14.4 212.25 14.4C210.15 14.4 208.35 15.35 206.5 16.8V36.05C206.5 36.35 206.4 36.5 206.05 36.5H200.1C199.75 36.5 199.65 36.35 199.65 36V15.35C199.65 13.1 199.55 10.85 199.45 9.8C199.4 9.5 199.5 9.35 199.85 9.35H205.1C205.45 9.35 205.55 9.45 205.7 9.7C205.85 10.2 206.05 11.45 206.1 12.15C208.8 9.95 211.55 8.8 214.7 8.8C217.85 8.8 220.35 9.85 222 12.7C224.75 10.5 227.7 8.8 231.95 8.8C235.9 8.8 241.2 11.3 241.2 19.8Z" fill="white"/>
</g>
<defs>
<clipPath id="clip0_1_12">
<rect width="240.7" height="49" fill="white" transform="translate(0.5)"/>
</clipPath>
</defs>
</svg>
