<svg width="43" height="68" viewBox="0 0 43 68" fill="none" xmlns="http://www.w3.org/2000/svg">
<g id="figma-logo">
<path d="M10.7498 67.5429C16.6804 67.5429 21.4937 62.4994 21.4937 56.2852V45.0275H10.7498C4.81921 45.0275 0.00596619 50.0709 0.00596619 56.2852C0.00596619 62.4994 4.81921 67.5429 10.7498 67.5429Z" fill="#0ACF83"/>
<path d="M0.00596619 33.7714C0.00596619 27.5571 4.81921 22.5137 10.7498 22.5137H21.4937V45.0291H10.7498C4.81921 45.0291 0.00596619 39.9856 0.00596619 33.7714Z" fill="#A259FF"/>
<path d="M0.0123107 11.2575C0.0123107 5.04327 4.82555 -0.000183105 10.7562 -0.000183105H21.5V22.5152H10.7562C4.82555 22.5152 0.0123107 17.4718 0.0123107 11.2575Z" fill="#F24E1E"/>
<path d="M21.4913 -0.000135903H32.2351C38.1657 -0.000135903 42.979 5.04332 42.979 11.2576C42.979 17.4718 38.1657 22.5153 32.2351 22.5153H21.4913V-0.000135903Z" fill="#FF7262"/>
<path d="M42.979 33.7714C42.979 39.9856 38.1657 45.0291 32.2351 45.0291C26.3045 45.0291 21.4913 39.9856 21.4913 33.7714C21.4913 27.5571 26.3045 22.5137 32.2351 22.5137C38.1657 22.5137 42.979 27.5571 42.979 33.7714Z" fill="#1ABCFE"/>
</g>
</svg>
