<svg width="116" height="360" viewBox="0 0 116 360" fill="none" xmlns="http://www.w3.org/2000/svg">
<g clip-path="url(#clip0_1156_1124)" filter="url(#filter0_d_1156_1124)">
<path d="M193.886 0.560957C218.996 -1.37327 243.832 18.6442 247.266 43.5946C249.051 56.5047 245.755 69.8039 248.193 82.611C251.615 100.591 265.692 114.589 280.411 125.484C295.129 136.38 311.45 145.674 323.021 159.854C334.603 174.035 340.326 195.185 330.632 210.716C321.258 225.744 300.76 230.974 291.558 246.116C276.588 270.734 299.764 304.807 287.072 330.673C280.663 343.731 265.795 351.388 251.249 351.526C236.702 351.663 222.67 345.185 211.397 335.983C198.098 325.133 187.431 310.163 171.339 304.2C145.141 294.506 117.604 312.326 90.2158 317.797C64.4185 322.959 35.3822 315.702 18.2031 295.776C1.024 275.85 -0.910227 242.98 16.967 223.672C26.6153 213.246 41.3223 206.539 45.9232 193.091C51.6343 176.404 38.8616 159.785 29.3278 144.953C21.4192 132.649 15.1816 118.743 14.8268 104.128C14.472 89.501 20.9271 74.1187 33.551 66.7252C64.3269 48.6762 105.827 83.3893 134.852 58.21C157.273 38.7762 156.506 3.44513 193.886 0.560957Z" stroke="#FF5722" stroke-width="0.858384" stroke-miterlimit="10"/>
<path d="M192.616 9.89976C216.387 8.06854 239.907 27.0217 243.157 50.6444C244.84 62.8678 241.727 75.4574 244.038 87.5778C247.277 104.608 260.611 117.85 274.54 128.162C288.468 138.474 303.919 147.276 314.884 160.701C325.848 174.126 331.262 194.143 322.094 208.85C313.213 223.077 293.813 228.032 285.092 242.362C270.923 265.664 292.863 297.928 280.846 322.42C274.78 334.781 260.703 342.026 246.923 342.163C233.154 342.3 219.866 336.154 209.199 327.456C196.61 317.19 186.515 303.009 171.27 297.367C146.469 288.188 120.397 305.058 94.4736 310.243C70.0498 315.13 42.5586 308.263 26.2951 289.401C10.0201 270.539 8.20033 239.42 25.1277 221.142C34.2723 211.277 48.1896 204.913 52.5387 192.198C57.9408 176.403 45.8548 160.666 36.8246 146.623C29.3395 134.972 23.4338 121.81 23.0904 107.973C22.7471 94.1244 28.8702 79.5662 40.8189 72.5618C69.9582 55.4742 109.249 88.3446 136.718 64.5044C157.937 46.0892 157.216 12.6466 192.616 9.91121V9.89976Z" stroke="#FF5722" stroke-width="0.824049" stroke-linecap="round" stroke-linejoin="round"/>
<path d="M191.345 19.2386C213.778 17.5104 235.97 35.3991 239.048 57.6827C240.639 69.2194 237.698 81.0994 239.872 92.5446C242.928 108.614 255.518 121.112 268.657 130.851C281.807 140.591 296.388 148.889 306.735 161.559C317.081 174.228 322.197 193.124 313.533 207.007C305.155 220.432 286.843 225.113 278.614 238.642C265.246 260.639 285.951 291.083 274.608 314.191C268.886 325.865 255.598 332.697 242.596 332.823C229.595 332.949 217.062 327.158 206.991 318.94C195.111 309.246 185.577 295.867 171.202 290.545C147.796 281.881 123.189 297.801 98.7198 302.688C75.6693 307.301 49.7347 300.823 34.3753 283.014C19.016 265.217 17.2992 235.837 33.2766 218.59C41.9062 209.273 55.0338 203.276 59.1426 191.27C64.2471 176.357 52.8363 161.513 44.3097 148.259C37.2366 137.272 31.6743 124.843 31.3538 111.784C31.0334 98.7135 36.8017 84.9679 48.0751 78.3641C75.5778 62.2379 112.649 93.2542 138.583 70.7645C158.612 53.3908 157.925 21.8252 191.334 19.25L191.345 19.2386Z" stroke="#FF5722" stroke-width="0.789713" stroke-linecap="round" stroke-linejoin="round"/>
<path d="M190.075 28.5774C211.168 26.9522 232.044 43.7765 234.928 64.7325C236.427 75.5825 233.658 86.7529 235.706 97.5113C238.59 112.619 250.413 124.384 262.774 133.529C275.135 142.685 288.846 150.491 298.586 162.405C308.314 174.32 313.121 192.094 304.984 205.141C297.109 217.777 279.884 222.16 272.147 234.887C259.569 255.568 279.049 284.204 268.382 305.938C262.991 316.914 250.505 323.346 238.281 323.461C226.058 323.575 214.27 318.127 204.804 310.402C193.634 301.292 184.672 288.702 171.144 283.701C149.135 275.552 125.993 290.522 102.977 295.123C81.3001 299.46 56.9106 293.36 42.4668 276.627C28.0231 259.883 26.4093 232.266 41.4368 216.048C49.5514 207.293 61.9007 201.65 65.7577 190.354C70.5532 176.334 59.8291 162.371 51.8175 149.907C45.1679 139.572 39.926 127.887 39.6285 115.606C39.3309 103.314 44.7559 90.3925 55.354 84.1778C81.22 69.013 116.082 98.1752 140.471 77.0246C159.31 60.6809 158.669 30.9923 190.075 28.5774Z" stroke="#FF5722" stroke-width="0.755378" stroke-linecap="round" stroke-linejoin="round"/>
<path d="M188.804 37.9181C208.57 36.3959 228.107 52.1559 230.819 71.7842C232.215 81.9475 229.629 92.4083 231.552 102.491C234.253 116.649 245.331 127.659 256.902 136.232C268.474 144.804 281.326 152.118 290.437 163.277C299.547 174.436 304.056 191.077 296.422 203.3C289.04 215.134 272.914 219.243 265.669 231.158C253.892 250.534 272.136 277.35 262.144 297.699C257.097 307.977 245.4 313.997 233.944 314.112C222.498 314.226 211.454 309.122 202.584 301.888C192.123 293.35 183.722 281.562 171.053 276.881C150.44 269.247 128.763 283.267 107.212 287.582C86.9082 291.645 64.0637 285.934 50.5356 270.254C37.0074 254.574 35.4967 228.708 49.5627 213.509C57.1623 205.303 68.7333 200.027 72.35 189.44C76.8365 176.313 66.7991 163.231 59.2911 151.557C53.0649 141.874 48.155 130.933 47.8803 119.43C47.5942 107.928 52.6873 95.819 62.6102 89.9934C86.8395 75.79 119.492 103.11 142.325 83.298C159.962 67.9959 159.367 40.1843 188.781 37.9181H188.804Z" stroke="#FF5722" stroke-width="0.709597" stroke-linecap="round" stroke-linejoin="round"/>
<path d="M187.534 47.2687C205.96 45.8495 224.181 60.5336 226.71 78.8458C228.015 88.3224 225.6 98.0736 227.386 107.47C229.904 120.666 240.227 130.933 251.031 138.933C261.824 146.921 273.807 153.743 282.299 164.158C290.792 174.561 294.992 190.081 287.885 201.48C281.006 212.513 265.967 216.347 259.215 227.449C248.239 245.51 265.235 270.517 255.93 289.493C251.226 299.073 240.319 304.692 229.64 304.795C218.962 304.898 208.673 300.137 200.398 293.396C190.635 285.442 182.818 274.454 171.007 270.082C151.791 262.963 131.579 276.045 111.481 280.062C92.5507 283.851 71.2513 278.529 58.6388 263.902C46.0263 249.287 44.6185 225.16 57.7346 211.003C64.8192 203.357 75.6005 198.424 78.9768 188.57C83.1657 176.324 73.8036 164.135 66.7992 153.251C60.9965 144.22 56.4184 134.023 56.1552 123.299C55.892 112.575 60.6302 101.278 69.8893 95.8533C92.4706 82.6113 122.926 108.077 144.214 89.6042C160.661 75.3322 160.1 49.409 187.534 47.2916V47.2687Z" stroke="#FF5722" stroke-width="0.675262" stroke-linecap="round" stroke-linejoin="round"/>
<path d="M186.252 56.6075C203.339 55.2913 220.244 68.911 222.578 85.8956C223.792 94.6855 221.548 103.727 223.208 112.448C225.543 124.683 235.122 134.205 245.137 141.622C255.151 149.038 266.253 155.356 274.139 165.016C282.024 174.664 285.916 189.05 279.323 199.626C272.937 209.858 258.997 213.417 252.736 223.718C242.55 240.462 258.322 263.661 249.692 281.252C245.331 290.134 235.214 295.353 225.314 295.444C215.414 295.536 205.869 291.129 198.2 284.869C189.147 277.487 181.891 267.301 170.938 263.249C153.107 256.657 134.371 268.777 115.738 272.497C98.1815 276.01 78.4272 271.066 66.7303 257.515C55.0334 243.953 53.7287 221.589 65.8948 208.45C72.4643 201.354 82.4673 196.787 85.5919 187.643C89.4718 176.289 80.7849 164.981 74.2955 154.887C68.9163 146.52 64.6702 137.055 64.4298 127.109C64.1895 117.164 68.5844 106.691 77.1683 101.656C98.1128 89.3749 126.348 112.998 146.102 95.8643C161.359 82.6337 160.832 58.5875 186.275 56.6304L186.252 56.6075Z" stroke="#FF5722" stroke-width="0.640927" stroke-linecap="round" stroke-linejoin="round"/>
<path d="M184.982 65.9463C200.73 64.7332 216.307 77.2885 218.47 92.9339C219.592 101.037 217.52 109.369 219.054 117.404C221.205 128.688 230.03 137.455 239.266 144.3C248.491 151.132 258.734 156.969 265.99 165.862C273.258 174.755 276.84 188.02 270.763 197.76C264.88 207.191 252.027 210.464 246.247 219.963C236.862 235.403 251.398 256.782 243.432 273C239.415 281.195 230.087 285.99 220.965 286.082C211.843 286.173 203.042 282.099 195.969 276.331C187.625 269.532 180.942 260.136 170.847 256.393C154.412 250.316 137.141 261.486 119.962 264.92C103.779 268.159 85.5694 263.604 74.788 251.105C64.0067 238.607 62.805 217.995 74.0098 205.886C80.0642 199.351 89.289 195.139 92.1732 186.704C95.7555 176.232 87.7439 165.816 81.7581 156.512C76.7909 148.798 72.8882 140.076 72.6593 130.897C72.4304 121.73 76.4819 112.07 84.402 107.435C103.71 96.1157 129.736 117.884 147.945 102.101C162.011 89.901 161.531 67.7432 184.97 65.9349L184.982 65.9463Z" stroke="#FF5722" stroke-width="0.606591" stroke-linecap="round" stroke-linejoin="round"/>
<path d="M183.711 75.2852C198.12 74.175 212.381 85.6659 214.35 99.9837C215.368 107.4 213.48 115.023 214.876 122.382C216.845 132.705 224.925 140.74 233.371 146.989C241.818 153.238 251.18 158.583 257.83 166.72C264.479 174.858 267.764 187.001 262.202 195.917C256.822 204.546 245.057 207.545 239.769 216.232C231.174 230.355 244.485 249.926 237.194 264.771C233.52 272.267 224.982 276.662 216.627 276.742C208.272 276.822 200.226 273.103 193.76 267.826C186.126 261.6 180.003 253.005 170.767 249.583C155.728 244.021 139.922 254.241 124.208 257.388C109.398 260.353 92.7338 256.187 82.8681 244.753C73.0024 233.319 71.9037 214.446 82.1585 203.367C87.6979 197.382 96.133 193.536 98.7768 185.811C102.05 176.231 94.7252 166.697 89.2545 158.182C84.7107 151.121 81.1284 143.143 80.9339 134.743C80.7278 126.353 84.4361 117.518 91.6808 113.272C109.352 102.914 133.169 122.84 149.822 108.384C162.686 97.2254 162.251 76.9447 183.711 75.2852Z" stroke="#FF5722" stroke-width="0.572256" stroke-linecap="round" stroke-linejoin="round"/>
<path d="M182.441 84.6259C195.511 83.6187 208.444 94.0452 210.241 107.035C211.168 113.754 209.451 120.678 210.722 127.351C212.507 136.713 219.832 144.003 227.5 149.68C235.169 155.357 243.661 160.198 249.692 167.58C255.724 174.962 258.7 185.972 253.652 194.064C248.765 201.893 238.099 204.617 233.303 212.502C225.509 225.321 237.584 243.072 230.968 256.532C227.626 263.33 219.889 267.313 212.313 267.393C204.736 267.462 197.434 264.085 191.563 259.301C184.638 253.647 179.088 245.853 170.698 242.752C157.056 237.704 142.715 246.986 128.454 249.836C115.018 252.526 99.8988 248.749 90.9487 238.368C81.9986 227.987 80.9914 210.877 90.3078 200.828C95.3322 195.403 102.989 191.901 105.381 184.908C108.357 176.221 101.707 167.569 96.7399 159.843C92.6197 153.434 89.3693 146.201 89.1861 138.578C89.003 130.967 92.3679 122.956 98.9374 119.099C114.961 109.702 136.569 127.774 151.688 114.669C163.362 104.54 162.961 86.1481 182.43 84.6488L182.441 84.6259Z" stroke="#FF5722" stroke-width="0.537921" stroke-linecap="round" stroke-linejoin="round"/>
<path d="M181.17 93.9647C192.913 93.0606 204.518 102.423 206.132 114.085C206.968 120.117 205.423 126.332 206.567 132.317C208.169 140.729 214.75 147.265 221.629 152.358C228.507 157.451 236.141 161.8 241.555 168.427C246.968 175.053 249.647 184.942 245.114 192.198C240.731 199.225 231.151 201.675 226.848 208.748C219.855 220.25 230.682 236.193 224.753 248.279C221.755 254.379 214.808 257.962 208.009 258.03C201.211 258.099 194.653 255.066 189.377 250.763C183.162 245.693 178.172 238.688 170.652 235.907C158.406 231.375 145.53 239.707 132.735 242.259C120.672 244.674 107.098 241.275 99.0631 231.97C91.0287 222.654 90.1245 207.283 98.4909 198.264C103 193.388 109.879 190.253 112.03 183.969C114.697 176.164 108.734 168.404 104.271 161.468C100.574 155.711 97.6554 149.222 97.4837 142.378C97.312 135.545 100.334 128.346 106.239 124.889C120.626 116.454 140.025 132.684 153.599 120.907C164.083 111.819 163.717 95.3038 181.193 93.9533L181.17 93.9647Z" stroke="#FF5722" stroke-width="0.503585" stroke-linecap="round" stroke-linejoin="round"/>
<path d="M179.9 103.315C190.304 102.514 200.593 110.812 202.012 121.135C202.745 126.48 201.383 131.997 202.402 137.296C203.821 144.747 209.658 150.538 215.747 155.059C221.835 159.579 228.599 163.425 233.395 169.296C238.19 175.168 240.56 183.935 236.542 190.367C232.662 196.593 224.17 198.756 220.359 205.028C214.156 215.226 223.758 229.337 218.505 240.05C215.85 245.464 209.692 248.634 203.66 248.691C197.629 248.748 191.826 246.059 187.157 242.259C181.652 237.761 177.234 231.558 170.561 229.097C159.711 225.08 148.3 232.462 136.958 234.728C126.269 236.868 114.251 233.858 107.132 225.606C100.013 217.354 99.2123 203.735 106.617 195.746C110.612 191.431 116.7 188.65 118.612 183.076C120.981 176.163 115.693 169.285 111.733 163.139C108.46 158.046 105.873 152.289 105.725 146.223C105.576 140.169 108.254 133.794 113.484 130.726C126.234 123.253 143.425 137.628 155.442 127.201C164.724 119.144 164.415 104.506 179.9 103.315Z" stroke="#FF5722" stroke-width="0.46925" stroke-linecap="round" stroke-linejoin="round"/>
<path d="M178.63 112.654C187.694 111.956 196.656 119.178 197.903 128.185C198.544 132.843 197.354 137.65 198.235 142.263C199.471 148.752 204.553 153.811 209.863 157.736C215.174 161.662 221.068 165.027 225.246 170.143C229.423 175.259 231.495 182.893 227.992 188.501C224.605 193.926 217.211 195.814 213.881 201.285C208.478 210.167 216.845 222.47 212.267 231.809C209.955 236.525 204.587 239.283 199.334 239.34C194.08 239.386 189.022 237.051 184.947 233.732C180.152 229.818 176.295 224.416 170.492 222.264C161.038 218.762 151.093 225.194 141.204 227.174C131.888 229.04 121.415 226.419 115.212 219.231C109.009 212.044 108.311 200.175 114.766 193.205C118.245 189.439 123.556 187.024 125.215 182.172C127.275 176.152 122.663 170.143 119.229 164.798C116.368 160.357 114.125 155.333 113.988 150.057C113.862 144.781 116.185 139.23 120.74 136.552C131.853 130.039 146.835 142.572 157.307 133.484C165.399 126.468 165.124 113.707 178.618 112.666L178.63 112.654Z" stroke="#FF5722" stroke-width="0.434915" stroke-linecap="round" stroke-linejoin="round"/>
</g>
<defs>
<filter id="filter0_d_1156_1124" x="0" y="0" width="340" height="359.949" filterUnits="userSpaceOnUse" color-interpolation-filters="sRGB">
<feFlood flood-opacity="0" result="BackgroundImageFix"/>
<feColorMatrix in="SourceAlpha" type="matrix" values="0 0 0 0 0 0 0 0 0 0 0 0 0 0 0 0 0 0 127 0" result="hardAlpha"/>
<feOffset dy="4"/>
<feGaussianBlur stdDeviation="2"/>
<feComposite in2="hardAlpha" operator="out"/>
<feColorMatrix type="matrix" values="0 0 0 0 0 0 0 0 0 0 0 0 0 0 0 0 0 0 0.25 0"/>
<feBlend mode="normal" in2="BackgroundImageFix" result="effect1_dropShadow_1156_1124"/>
<feBlend mode="normal" in="SourceGraphic" in2="effect1_dropShadow_1156_1124" result="shape"/>
</filter>
<clipPath id="clip0_1156_1124">
<rect width="332" height="351.949" fill="white" transform="translate(4)"/>
</clipPath>
</defs>
</svg>
