<svg width="79" height="28" viewBox="0 0 79 28" fill="none" xmlns="http://www.w3.org/2000/svg">
<path fill-rule="evenodd" clip-rule="evenodd" d="M10.1195 1.24162C4.97879 7.1869 0.0498261 14.5596 0.000401272 20.0704C-0.0188484 22.1439 0.65333 23.954 2.26562 25.325C4.58599 27.2996 7.14255 27.9959 9.68663 28C13.4044 28.0051 17.0962 26.528 19.9868 25.3891C24.8549 23.4719 78.6671 0.458755 78.6671 0.458755C79.1863 0.202581 79.089 -0.116609 78.4392 0.0427308C78.177 0.107287 19.8562 15.6719 19.8562 15.6719C18.7303 15.9829 17.5806 16.1443 16.462 16.1504C11.9799 16.1765 7.99162 13.7265 8.02388 8.56358C8.03636 6.54339 8.66432 4.10718 10.1195 1.24162Z" fill="black"/>
</svg>
