<svg width="24" height="24" viewBox="0 0 24 24" fill="none" xmlns="http://www.w3.org/2000/svg">
<path fill-rule="evenodd" clip-rule="evenodd" d="M9.59996 3.45001C9.84849 3.11864 9.78133 2.64854 9.44996 2.40001C9.11859 2.15149 8.64849 2.21864 8.39996 2.55001L5.41496 6.53001C4.83854 6.67122 4.33094 6.88952 3.88283 7.23395C3.3322 7.65717 2.88108 8.19599 2.56124 8.81244C2.1567 9.59214 2.07735 10.4597 2.14808 11.4821C2.21743 12.4844 2.44052 13.7336 2.72339 15.3177L2.73138 15.3624L2.73795 15.3992L2.73795 15.3992C2.94225 16.5433 3.10479 17.4536 3.30524 18.1775C3.5113 18.9217 3.77366 19.5344 4.2144 20.0582C4.57058 20.4815 4.99797 20.8393 5.47731 21.1156C6.07043 21.4574 6.71967 21.6079 7.4885 21.68C8.2364 21.75 9.16103 21.75 10.3232 21.75H10.3233H10.3607H13.6392H13.6766H13.6767C14.8389 21.75 15.7635 21.75 16.5114 21.68C17.2802 21.6079 17.9295 21.4574 18.5226 21.1156C19.0019 20.8393 19.4293 20.4815 19.7855 20.0582C20.2263 19.5344 20.4886 18.9217 20.6947 18.1775C20.8951 17.4536 21.0577 16.5434 21.262 15.3992L21.2685 15.3624L21.2765 15.3176L21.2765 15.3176C21.5594 13.7336 21.7825 12.4844 21.8518 11.4821C21.9226 10.4597 21.8432 9.59214 21.4387 8.81244C21.1188 8.19599 20.6677 7.65717 20.1171 7.23395C19.669 6.88952 19.1614 6.67122 18.585 6.53001L15.6 2.55001C15.3514 2.21864 14.8813 2.15149 14.55 2.40001C14.2186 2.64854 14.1514 3.11864 14.4 3.45001L16.5257 6.28428C15.7222 6.25 14.7826 6.25001 13.6847 6.25001H13.6392H10.3607H10.3153C9.21734 6.25001 8.27774 6.25 7.47426 6.28428L9.59996 3.45001ZM4.75085 17.7773C4.57134 17.1289 4.42038 16.2879 4.20802 15.0987C3.91541 13.4601 3.7076 12.2905 3.64451 11.3785C3.58215 10.4772 3.67107 9.93041 3.8927 9.50325C4.11154 9.08147 4.4202 8.71281 4.79694 8.42323C5.17849 8.12996 5.70116 7.9463 6.5994 7.84925C7.50825 7.75104 8.69616 7.75001 10.3607 7.75001H13.6392C15.3038 7.75001 16.4917 7.75104 17.4005 7.84925C18.2988 7.9463 18.8214 8.12996 19.203 8.42323C19.5797 8.71281 19.8884 9.08147 20.1072 9.50325C20.3288 9.93041 20.4178 10.4772 20.3554 11.3785C20.2923 12.2905 20.0845 13.4601 19.7919 15.0987C19.5795 16.2879 19.4286 17.1289 19.2491 17.7773C19.073 18.4131 18.886 18.7975 18.6378 19.0925C18.3941 19.3821 18.1016 19.6269 17.7737 19.8159C17.4397 20.0084 17.0284 20.125 16.3715 20.1865C15.7017 20.2493 14.8473 20.25 13.6392 20.25H10.3607C9.15266 20.25 8.29822 20.2493 7.62842 20.1865C6.97153 20.125 6.56025 20.0084 6.22625 19.8159C5.89828 19.6269 5.60585 19.3821 5.36215 19.0925C5.11396 18.7975 4.92691 18.4131 4.75085 17.7773Z" fill="black"/>
</svg>
